<svg width="3046" height="2225" viewBox="0 0 3046 2225" fill="none" xmlns="http://www.w3.org/2000/svg">
<g filter="url(#filter0_d_2_351)">
<rect x="113" y="537.789" width="1095.41" height="1541.4" rx="78.2435" transform="rotate(-18 113 537.789)" fill="#F2F2F2"/>
<rect x="115.465" y="539.045" width="1091.5" height="1537.49" rx="76.2874" transform="rotate(-18 115.465 539.045)" stroke="#D2D2D2" stroke-width="3.91218"/>
</g>
<path d="M359.139 738.853L336.402 627.334L455 588.8L466.381 623.827L382.229 651.169L391.778 698.361C400.026 689.789 409.77 683.677 421.01 680.025C441.164 673.476 458.988 674.594 474.482 683.379C489.977 692.163 501.376 707.795 508.68 730.274C513.119 743.936 514.195 757.137 511.908 769.878C509.685 782.491 504.173 793.548 495.369 803.05C486.535 812.455 474.802 819.535 460.171 824.289C447.381 828.444 434.677 829.733 422.06 828.155C409.411 826.481 398.362 821.983 388.913 814.662C379.561 807.31 372.74 797.689 368.448 785.801L410.016 772.295C413.753 780.828 419.04 786.716 425.878 789.958C432.781 793.071 440.496 793.242 449.023 790.472C458.518 787.386 464.732 781.618 467.663 773.167C470.563 764.619 469.983 754.095 465.921 741.596C462.018 729.581 456.072 721.337 448.083 716.862C440.095 712.388 430.675 711.914 419.823 715.44C409.843 718.682 402.602 723.927 398.101 731.174L395.259 736.275L359.139 738.853Z" fill="#F24822"/>
<path fill-rule="evenodd" clip-rule="evenodd" d="M443.821 1109.42L585.025 1193.91L665.064 1050.14L523.861 965.647L443.821 1109.42Z" fill="#F24822"/>
<g filter="url(#filter1_d_2_351)">
<rect x="583.011" y="223.622" width="1095.41" height="1541.4" rx="78.2435" transform="rotate(-6 583.011 223.622)" fill="#F2F2F2"/>
<rect x="585.161" y="225.363" width="1091.5" height="1537.49" rx="76.2874" transform="rotate(-6 585.161 225.363)" stroke="#D2D2D2" stroke-width="3.91218"/>
</g>
<path d="M943.861 457.678C946.033 478.348 944.58 496.684 939.501 512.686C934.411 528.587 926.423 541.771 915.538 552.237L955.352 577.248L929.023 605.984L877.931 573.092C872.657 574.569 867.132 575.61 861.357 576.217C843.018 578.145 826.191 575.457 810.877 568.155C795.563 560.852 783.097 549.459 773.479 533.977C763.851 518.394 757.868 499.969 755.53 478.702L754.38 467.759C752.091 445.975 753.979 426.415 760.045 409.08C766.201 391.632 775.96 377.75 789.319 367.434C802.77 357.005 818.715 350.822 837.156 348.884C855.596 346.946 872.428 349.684 887.652 357.099C902.966 364.402 915.397 375.951 924.945 391.748C934.584 407.433 940.543 426.117 942.822 447.799L943.861 457.678ZM896.604 452.503C894.165 429.301 888.158 412.108 878.582 400.924C869.007 389.74 856.518 384.957 841.117 386.576C825.818 388.184 814.642 395.402 807.591 408.231C800.528 420.959 798.155 438.828 800.471 461.839L801.605 472.63C803.98 495.225 809.977 512.317 819.595 523.906C829.213 535.495 841.824 540.47 857.427 538.83C872.727 537.222 883.852 530.008 890.802 517.19C897.742 504.27 900.054 486.305 897.738 463.294L896.604 452.503Z" fill="#050505"/>
<path fill-rule="evenodd" clip-rule="evenodd" d="M945.558 800.313C938.948 801.007 932.8 803.112 927.329 806.32C931.828 797.235 933.909 786.583 932.739 775.455C929.67 746.254 905.433 724.868 878.607 727.688C851.78 730.507 832.52 756.465 835.589 785.666C836.703 796.261 840.613 805.817 846.412 813.571C841.32 812.276 835.967 811.831 830.504 812.405C803.676 815.225 784.417 841.183 787.487 870.383C790.556 899.584 814.791 920.971 841.618 918.151C847.677 917.514 853.344 915.687 858.461 912.919C858.462 912.931 880.37 903.91 892.137 872.906L894 890.633C894 890.633 892.254 947.314 839.179 959.076L830.606 959.977L831.522 968.685L977.817 953.309L976.902 944.601L968.33 945.502C913.969 945.031 900.476 889.952 900.476 889.952L898.738 873.418C902.203 879.762 920.917 910.593 955.225 906.173C955.707 906.135 956.188 906.109 956.673 906.058C983.5 903.239 1002.76 877.281 999.69 848.08C996.621 818.879 972.386 797.493 945.558 800.313Z" fill="#1A1919"/>
<g filter="url(#filter2_d_2_351)">
<rect x="1046.66" y="113.407" width="1095.41" height="1541.4" rx="78.2435" transform="rotate(0.308765 1046.66 113.407)" fill="#F2F2F2"/>
<rect x="1048.6" y="115.373" width="1091.5" height="1537.49" rx="76.2874" transform="rotate(0.308765 1048.6 115.373)" stroke="#D2D2D2" stroke-width="3.91218"/>
</g>
<path d="M1362.52 491.817L1210.01 490.995L1210.18 460.737L1282.57 384.411C1292.51 373.665 1299.84 364.281 1304.57 356.258C1309.4 348.235 1311.84 340.607 1311.88 333.374C1311.93 323.492 1309.48 315.735 1304.51 310.105C1299.55 304.373 1292.44 301.482 1283.17 301.432C1273.18 301.378 1265.27 304.8 1259.42 311.696C1253.68 318.491 1250.78 327.492 1250.72 338.699L1206.4 338.46C1206.48 324.91 1209.75 312.549 1216.23 301.377C1222.81 290.206 1232.03 281.494 1243.88 275.241C1255.73 268.886 1269.15 265.749 1284.12 265.83C1307.04 265.953 1324.79 271.551 1337.37 282.622C1350.04 293.693 1356.33 309.264 1356.22 329.334C1356.16 340.337 1353.24 351.528 1347.48 362.907C1341.71 374.287 1331.86 387.529 1317.92 402.635L1267.05 455.695L1362.72 456.211L1362.52 491.817Z" fill="#F24822"/>
<path fill-rule="evenodd" clip-rule="evenodd" d="M1331.49 628.509C1295.55 628.867 1288.18 669.749 1288.18 669.749C1288.18 669.749 1280.11 628.784 1244.17 628.038C1208.23 627.291 1185.94 658.691 1197.93 691.935C1209.91 725.178 1221.99 732.708 1240.96 756.865C1259.93 781.022 1287.49 822.783 1287.3 832.597C1287.22 822.781 1314.08 781.314 1333.31 757.363C1352.54 733.412 1364.7 726.012 1377.04 692.9C1389.39 659.787 1367.44 628.149 1331.49 628.509Z" fill="#F24822"/>
<g filter="url(#filter3_d_2_351)">
<rect x="1486.06" y="152.834" width="1095.41" height="1541.4" rx="78.2435" transform="rotate(6 1486.06 152.834)" fill="#F2F2F2"/>
<rect x="1487.8" y="154.984" width="1091.5" height="1537.49" rx="76.2874" transform="rotate(6 1487.8 154.984)" stroke="#D2D2D2" stroke-width="3.91218"/>
</g>
<path d="M1762.85 560.704L1611.17 544.762L1614.33 514.669L1693.93 445.898C1704.89 436.191 1713.12 427.58 1718.62 420.065C1724.23 412.561 1727.41 405.213 1728.16 398.019C1729.2 388.191 1727.52 380.229 1723.14 374.135C1718.78 367.939 1711.98 364.356 1702.76 363.387C1692.83 362.344 1684.62 364.963 1678.12 371.246C1671.73 377.438 1667.95 386.107 1666.78 397.252L1622.7 392.62C1624.12 379.144 1628.61 367.169 1636.16 356.695C1643.82 346.231 1653.85 338.476 1666.26 333.429C1678.69 328.281 1692.35 326.49 1707.24 328.055C1730.04 330.451 1747.15 337.781 1758.56 350.044C1770.07 362.318 1774.78 378.435 1772.68 398.396C1771.53 409.338 1767.53 420.186 1760.66 430.937C1753.79 441.689 1742.68 453.889 1727.31 467.538L1671.43 515.292L1766.57 525.292L1762.85 560.704Z" fill="black"/>
<path fill-rule="evenodd" clip-rule="evenodd" d="M1703.78 860.125C1743.75 864.849 1771.48 837.981 1761.19 805.551C1750.9 773.121 1738.13 764.725 1719.23 740.011C1700.32 715.296 1673.47 673.158 1674.58 664.001C1673.78 673.189 1640.03 708.959 1616.39 729.202C1592.77 749.447 1578.54 755.005 1561.72 784.587C1544.92 814.169 1566.46 846.215 1606.54 849.904C1634.05 852.437 1648.32 835.607 1654.56 824.803L1653 839.637C1653 839.637 1638.6 892.225 1576.08 891.576L1566.21 890.538L1565.33 898.877L1733.91 916.595L1734.79 908.257L1724.91 907.219C1663.62 894.855 1660.47 840.422 1660.47 840.422L1661.82 827.535C1666.57 839.507 1677.86 857.062 1703.78 860.125Z" fill="#1A1919"/>
<g filter="url(#filter4_d_2_351)">
<rect x="1891.2" y="288.172" width="1095.41" height="1541.4" rx="78.2435" transform="rotate(18 1891.2 288.172)" fill="#F2F2F2"/>
<rect x="1892.46" y="290.637" width="1091.5" height="1537.49" rx="76.2874" transform="rotate(18 1892.46 290.637)" stroke="#D2D2D2" stroke-width="3.91218"/>
</g>
<path d="M2077.14 744.675L1932.09 697.546L1941.44 668.768L2033.6 618.05C2046.34 610.833 2056.18 604.121 2063.12 597.915C2070.16 591.74 2074.8 585.213 2077.04 578.334C2080.09 568.935 2080.11 560.8 2077.09 553.928C2074.11 546.959 2068.21 542.043 2059.39 539.178C2049.89 536.092 2041.31 536.947 2033.65 541.741C2026.12 546.47 2020.62 554.163 2017.15 564.822L1975 551.127C1979.19 538.24 1986.07 527.459 1995.64 518.784C2005.3 510.141 2016.73 504.642 2029.92 502.286C2043.14 499.834 2056.88 500.922 2071.12 505.55C2092.92 512.633 2108.13 523.359 2116.74 537.727C2125.45 552.127 2126.71 568.871 2120.51 587.959C2117.11 598.424 2110.93 608.2 2101.98 617.289C2093.03 626.378 2079.62 636.001 2061.75 646.156L1997.16 681.249L2088.14 710.811L2077.14 744.675Z" fill="#F24822"/>
<path fill-rule="evenodd" clip-rule="evenodd" d="M1822.85 945.084L1887.42 1096.44L2036.68 1027.17L1972.11 875.814L1822.85 945.084Z" fill="#F24822"/>
<defs>
<filter id="filter0_d_2_351" x="0.313873" y="106.163" width="1743.49" height="2029.83" filterUnits="userSpaceOnUse" color-interpolation-filters="sRGB">
<feFlood flood-opacity="0" result="BackgroundImageFix"/>
<feColorMatrix in="SourceAlpha" type="matrix" values="0 0 0 0 0 0 0 0 0 0 0 0 0 0 0 0 0 0 127 0" result="hardAlpha"/>
<feOffset dy="19.5609"/>
<feGaussianBlur stdDeviation="66.507"/>
<feColorMatrix type="matrix" values="0 0 0 0 0 0 0 0 0 0 0 0 0 0 0 0 0 0 0.1 0"/>
<feBlend mode="normal" in2="BackgroundImageFix" result="effect1_dropShadow_2_351"/>
<feBlend mode="normal" in="SourceGraphic" in2="effect1_dropShadow_2_351" result="shape"/>
</filter>
<filter id="filter1_d_2_351" x="457.741" y="3.41083" width="1501.07" height="1898" filterUnits="userSpaceOnUse" color-interpolation-filters="sRGB">
<feFlood flood-opacity="0" result="BackgroundImageFix"/>
<feColorMatrix in="SourceAlpha" type="matrix" values="0 0 0 0 0 0 0 0 0 0 0 0 0 0 0 0 0 0 127 0" result="hardAlpha"/>
<feOffset dy="19.5609"/>
<feGaussianBlur stdDeviation="66.507"/>
<feColorMatrix type="matrix" values="0 0 0 0 0 0 0 0 0 0 0 0 0 0 0 0 0 0 0.1 0"/>
<feBlend mode="normal" in2="BackgroundImageFix" result="effect1_dropShadow_2_351"/>
<feBlend mode="normal" in="SourceGraphic" in2="effect1_dropShadow_2_351" result="shape"/>
</filter>
<filter id="filter2_d_2_351" x="905.756" y="0.373901" width="1368.89" height="1812.47" filterUnits="userSpaceOnUse" color-interpolation-filters="sRGB">
<feFlood flood-opacity="0" result="BackgroundImageFix"/>
<feColorMatrix in="SourceAlpha" type="matrix" values="0 0 0 0 0 0 0 0 0 0 0 0 0 0 0 0 0 0 127 0" result="hardAlpha"/>
<feOffset dy="19.5609"/>
<feGaussianBlur stdDeviation="66.507"/>
<feColorMatrix type="matrix" values="0 0 0 0 0 0 0 0 0 0 0 0 0 0 0 0 0 0 0.1 0"/>
<feBlend mode="normal" in2="BackgroundImageFix" result="effect1_dropShadow_2_351"/>
<feBlend mode="normal" in="SourceGraphic" in2="effect1_dropShadow_2_351" result="shape"/>
</filter>
<filter id="filter3_d_2_351" x="1199.67" y="47.125" width="1501.07" height="1898" filterUnits="userSpaceOnUse" color-interpolation-filters="sRGB">
<feFlood flood-opacity="0" result="BackgroundImageFix"/>
<feColorMatrix in="SourceAlpha" type="matrix" values="0 0 0 0 0 0 0 0 0 0 0 0 0 0 0 0 0 0 127 0" result="hardAlpha"/>
<feOffset dy="19.5609"/>
<feGaussianBlur stdDeviation="66.507"/>
<feColorMatrix type="matrix" values="0 0 0 0 0 0 0 0 0 0 0 0 0 0 0 0 0 0 0.1 0"/>
<feBlend mode="normal" in2="BackgroundImageFix" result="effect1_dropShadow_2_351"/>
<feBlend mode="normal" in="SourceGraphic" in2="effect1_dropShadow_2_351" result="shape"/>
</filter>
<filter id="filter4_d_2_351" x="1302.2" y="195.047" width="1743.49" height="2029.83" filterUnits="userSpaceOnUse" color-interpolation-filters="sRGB">
<feFlood flood-opacity="0" result="BackgroundImageFix"/>
<feColorMatrix in="SourceAlpha" type="matrix" values="0 0 0 0 0 0 0 0 0 0 0 0 0 0 0 0 0 0 127 0" result="hardAlpha"/>
<feOffset dy="19.5609"/>
<feGaussianBlur stdDeviation="66.507"/>
<feColorMatrix type="matrix" values="0 0 0 0 0 0 0 0 0 0 0 0 0 0 0 0 0 0 0.1 0"/>
<feBlend mode="normal" in2="BackgroundImageFix" result="effect1_dropShadow_2_351"/>
<feBlend mode="normal" in="SourceGraphic" in2="effect1_dropShadow_2_351" result="shape"/>
</filter>
</defs>
</svg>
