<svg width="47" height="47" viewBox="0 0 47 47" fill="none" xmlns="http://www.w3.org/2000/svg">
<g clip-path="url(#clip0_5_373)">
<path d="M23.4032 46.7069C10.5262 46.7069 0.0498047 36.2305 0.0498047 23.3534C0.0498047 10.4764 10.5262 0 23.4032 0C36.2803 0 46.7567 10.4764 46.7567 23.3534C46.7567 36.2305 36.2774 46.7069 23.4032 46.7069ZM23.4032 4.92454C18.5162 4.92919 13.8307 6.87261 10.3751 10.3282C6.91948 13.7839 4.97607 18.4694 4.97141 23.3564C4.97141 33.522 13.2376 41.7911 23.4032 41.7911C33.5689 41.7911 41.8321 33.5249 41.8321 23.3564C41.8283 18.4696 39.8855 13.7841 36.4303 10.3284C32.9752 6.8727 28.29 4.92919 23.4032 4.92454Z" fill="#F2D857"/>
<path d="M23.371 36.764L10.6083 23.6935L23.6847 10.9307L36.4445 24.0071L23.371 36.764ZM15.8289 23.758L23.4326 31.5493L31.218 23.9456L23.6231 16.1513L15.8289 23.758Z" fill="#EFB82E"/>
</g>
<defs>
<clipPath id="clip0_5_373">
<rect width="47" height="47" fill="white"/>
</clipPath>
</defs>
</svg>
