<?xml version="1.0" standalone="no"?><!DOCTYPE svg PUBLIC "-//W3C//DTD SVG 1.1//EN" "http://www.w3.org/Graphics/SVG/1.1/DTD/svg11.dtd"><svg height="480" node-id="1" sillyvg="true" template-height="480" template-width="480" version="1.1" viewBox="0 0 480 480" width="480" xmlns="http://www.w3.org/2000/svg" xmlns:xlink="http://www.w3.org/1999/xlink"><defs node-id="98"><linearGradient gradientUnits="objectBoundingBox" id="a" node-id="3" spreadMethod="pad" x1="-0.392" x2="0.5" y1="1.114" y2="0.396"><stop offset="0" stop-color="#ffffff" stop-opacity="0"></stop><stop offset="1" stop-color="#ebedf5"></stop></linearGradient><linearGradient gradientUnits="objectBoundingBox" id="b" node-id="6" spreadMethod="pad" x1="-0.906" x2="0.636" y1="1.646" y2="0.061"><stop offset="0" stop-color="#ffffff" stop-opacity="0"></stop><stop offset="1" stop-color="#ebedf5"></stop></linearGradient><linearGradient gradientUnits="objectBoundingBox" id="c" node-id="7" spreadMethod="pad" x1="-0.109" x2="0.736" y1="1.931" y2="0.141"><stop offset="0" stop-color="#ffffff" stop-opacity="0"></stop><stop offset="1" stop-color="#ebedf5"></stop></linearGradient><linearGradient gradientUnits="objectBoundingBox" id="d" node-id="8" spreadMethod="pad" x1="-0.02" x2="1.026" y1="0" y2="0"><stop offset="0" stop-color="#ebedf5"></stop><stop offset="1" stop-color="#909aa9"></stop></linearGradient></defs><g node-id="506"><g node-id="525"><path d="M 424.00 240.00 L 423.71 250.21 L 422.90 260.20 L 421.58 269.96 L 419.75 279.53 L 417.43 288.91 L 414.59 298.22 L 411.32 307.26 L 407.61 316.04 L 403.46 324.57 L 398.88 332.87 L 393.86 340.94 L 388.48 348.69 L 382.73 356.13 L 376.61 363.27 L 370.11 370.11 L 363.27 376.61 L 356.13 382.73 L 348.69 388.48 L 340.94 393.86 L 332.87 398.88 L 324.57 403.46 L 316.04 407.61 L 307.26 411.32 L 298.22 414.59 L 288.91 417.43 L 279.53 419.75 L 269.96 421.58 L 260.20 422.90 L 250.21 423.71 L 240.00 424.00 L 229.79 423.71 L 219.80 422.90 L 210.04 421.58 L 200.47 419.75 L 191.09 417.43 L 181.78 414.59 L 172.74 411.32 L 163.96 407.61 L 155.43 403.46 L 147.13 398.88 L 139.06 393.86 L 131.31 388.48 L 123.87 382.73 L 116.73 376.61 L 109.89 370.11 L 103.39 363.27 L 97.27 356.13 L 91.52 348.69 L 86.14 340.94 L 81.12 332.87 L 76.54 324.57 L 72.39 316.04 L 68.68 307.26 L 65.41 298.22 L 62.57 288.91 L 60.25 279.53 L 58.42 269.96 L 57.10 260.20 L 56.29 250.21 L 56.00 240.00 L 56.29 229.79 L 57.10 219.80 L 58.42 210.04 L 60.25 200.47 L 62.57 191.09 L 65.41 181.78 L 68.68 172.74 L 72.39 163.96 L 76.54 155.43 L 81.12 147.13 L 86.14 139.06 L 91.52 131.31 L 97.27 123.87 L 103.39 116.73 L 109.89 109.89 L 116.73 103.39 L 123.87 97.27 L 131.31 91.52 L 139.06 86.14 L 147.13 81.12 L 155.43 76.54 L 163.96 72.39 L 172.74 68.68 L 181.78 65.41 L 191.09 62.57 L 200.47 60.25 L 210.04 58.42 L 219.80 57.10 L 229.79 56.29 L 240.00 56.00 L 250.21 56.29 L 260.20 57.10 L 269.96 58.42 L 279.53 60.25 L 288.91 62.57 L 298.22 65.41 L 307.26 68.68 L 316.04 72.39 L 324.57 76.54 L 332.87 81.12 L 340.94 86.14 L 348.69 91.52 L 356.13 97.27 L 363.27 103.39 L 370.11 109.89 L 376.61 116.73 L 382.73 123.87 L 388.48 131.31 L 393.86 139.06 L 398.88 147.13 L 403.46 155.43 L 407.61 163.96 L 411.32 172.74 L 414.59 181.78 L 417.43 191.09 L 419.75 200.47 L 421.58 210.04 L 422.90 219.80 L 423.71 229.79 L 424.00 240.00 Z" fill="#f3f3fa" fill-rule="nonzero" group-id="1,20" node-id="129" stroke="none" target-height="368" target-width="368" target-x="56" target-y="56"></path></g><g node-id="526"><path d="M 152.00 376.00 L 148.04 374.80 L 144.64 374.28 L 141.27 374.20 L 137.82 374.47 L 130.10 375.43 L 125.63 375.82 L 120.00 376.00 L 113.34 375.81 L 107.12 375.27 L 101.32 374.43 L 95.56 373.22 L 90.50 371.78 L 86.06 370.14 L 81.78 368.10 L 78.39 365.98 L 75.77 363.79 L 74.07 361.84 L 72.92 359.92 L 72.24 357.98 L 72.00 356.00 L 72.24 354.02 L 72.92 352.08 L 74.07 350.16 L 75.77 348.21 L 78.39 346.02 L 81.78 343.90 L 86.06 341.86 L 90.50 340.22 L 95.56 338.78 L 101.32 337.57 L 107.12 336.73 L 113.34 336.19 L 120.00 336.00 L 376.00 336.00 L 378.92 336.27 L 381.60 337.00 L 384.07 338.18 L 386.32 339.77 L 388.23 341.68 L 389.82 343.92 L 391.00 346.40 L 391.73 349.08 L 392.00 352.00 L 391.73 354.92 L 391.00 357.60 L 389.82 360.08 L 388.23 362.32 L 386.32 364.23 L 384.08 365.82 L 381.60 367.00 L 378.92 367.73 L 376.00 368.00 L 373.39 368.05 L 366.75 368.38 L 357.86 369.27 L 353.11 370.01 L 348.50 371.00 L 344.12 372.39 L 340.23 374.10 L 336.65 376.08 L 333.75 377.98 L 329.52 381.31 L 328.00 382.71 L 325.00 385.77 L 321.68 388.91 L 316.53 393.42 L 310.71 398.08 L 303.40 403.36 L 298.23 406.73 L 292.57 410.04 L 286.40 413.30 L 280.06 416.20 L 273.38 418.75 L 266.33 420.94 L 260.96 422.24 L 255.46 423.18 L 249.81 423.77 L 244.00 424.00 L 234.47 423.72 L 225.42 422.92 L 216.82 421.64 L 208.32 419.83 L 200.51 417.64 L 193.34 415.08 L 188.03 412.78 L 183.24 410.34 L 178.91 407.76 L 175.02 405.06 L 171.29 401.98 L 168.13 398.84 L 165.50 395.63 L 163.35 392.35 L 162.72 390.80 L 162.20 388.79 L 161.69 386.65 L 160.94 384.30 L 159.82 382.03 L 158.05 379.75 L 156.58 378.45 L 154.60 377.19 L 152.00 376.00 Z" fill="#d1d6e2" fill-rule="nonzero" group-id="1,21" node-id="134" stroke="none" target-height="88" target-width="320" target-x="72" target-y="336"></path></g><g node-id="527"><path d="M 380.00 351.50 L 379.75 352.63 L 379.02 353.79 L 377.67 355.03 L 375.44 356.37 L 372.38 357.70 L 368.31 359.03 L 363.01 360.34 L 354.74 361.82 L 344.58 363.02 L 333.90 363.74 L 322.00 364.00 L 310.10 363.74 L 299.42 363.02 L 289.26 361.82 L 280.99 360.34 L 275.69 359.03 L 271.62 357.70 L 268.56 356.37 L 266.33 355.03 L 264.98 353.79 L 264.25 352.63 L 264.00 351.50 L 264.25 350.37 L 264.98 349.21 L 266.33 347.97 L 268.56 346.63 L 271.62 345.30 L 275.69 343.97 L 280.99 342.66 L 289.26 341.18 L 299.42 339.98 L 310.10 339.26 L 322.00 339.00 L 333.90 339.26 L 344.58 339.98 L 354.74 341.18 L 363.01 342.66 L 368.31 343.97 L 372.38 345.30 L 375.44 346.63 L 377.67 347.97 L 379.02 349.21 L 379.75 350.37 L 380.00 351.50 Z" fill="#c0c9db" fill-rule="nonzero" group-id="1,22" node-id="139" stroke="none" target-height="25" target-width="116" target-x="264" target-y="339"></path></g><g node-id="528"><path d="M 204.00 351.50 L 203.75 352.63 L 203.02 353.79 L 201.67 355.03 L 199.44 356.37 L 196.38 357.70 L 192.31 359.03 L 187.01 360.34 L 178.74 361.82 L 168.58 363.02 L 157.90 363.74 L 146.00 364.00 L 134.10 363.74 L 123.42 363.02 L 113.26 361.82 L 104.99 360.34 L 99.69 359.03 L 95.62 357.70 L 92.56 356.37 L 90.33 355.03 L 88.98 353.79 L 88.25 352.63 L 88.00 351.50 L 88.25 350.37 L 88.98 349.21 L 90.33 347.97 L 92.56 346.63 L 95.62 345.30 L 99.69 343.97 L 104.99 342.66 L 113.26 341.18 L 123.42 339.98 L 134.10 339.26 L 146.00 339.00 L 157.90 339.26 L 168.58 339.98 L 178.74 341.18 L 187.01 342.66 L 192.31 343.97 L 196.38 345.30 L 199.44 346.63 L 201.67 347.97 L 203.02 349.21 L 203.75 350.37 L 204.00 351.50 Z" fill="#c0c9db" fill-rule="nonzero" group-id="1,23" node-id="144" stroke="none" target-height="25" target-width="116" target-x="88" target-y="339"></path></g><g node-id="529"><g node-id="558"><g node-id="586"><path d="M 361.27 300.55 L 364.11 303.71 L 366.46 307.17 L 368.35 310.97 L 371.20 317.45 L 372.70 320.44 L 374.07 322.80 L 375.55 324.78 L 376.74 325.75 L 377.56 326.51 L 378.19 327.85 L 378.39 329.39 L 378.06 331.04 L 377.52 332.01 L 376.62 332.87 L 375.26 333.63 L 373.75 334.05 L 371.62 334.19 L 368.69 333.94 L 366.88 333.36 L 365.36 332.34 L 364.06 330.82 L 363.05 329.04 L 362.21 326.94 L 361.54 324.46 L 360.90 320.63 L 360.57 316.55 L 360.49 312.48 L 360.58 308.80 L 361.00 302.89 L 361.27 300.55 Z" fill="#ffffff" fill-rule="nonzero" group-id="1,24,53,81" node-id="153" stroke="none" target-height="33.637512" target-width="17.902832" target-x="360.4911" target-y="300.55"></path></g><path d="M 362.22 303.21 L 364.04 305.72 L 365.61 308.36 L 366.91 311.14 L 367.94 314.03 L 368.70 317.00 L 369.17 320.06 L 369.76 324.42 L 370.47 327.63 L 371.24 329.92 L 372.36 331.99 L 373.37 332.90 L 374.32 333.08 L 372.32 333.39 L 370.33 333.38 L 368.33 333.05 L 367.56 332.46 L 366.56 330.58 L 365.74 328.21 L 364.87 325.00 L 363.43 317.88 L 362.39 310.82 L 361.94 305.41 L 362.02 303.57 L 362.22 303.21 Z" fill="url(#a)" fill-rule="nonzero" group-id="1,24,53,82" node-id="158" stroke="none" target-height="30.178528" target-width="12.388306" target-x="361.9367" target-y="303.21"></path></g><g node-id="559"><path d="M 360.08 352.12 L 363.58 352.95 L 367.09 353.40 L 370.63 353.49 L 374.21 353.21 L 375.85 352.71 L 377.21 351.86 L 378.34 350.63 L 379.20 349.16 L 379.75 347.56 L 379.99 345.81 L 379.90 344.05 L 379.43 342.44 L 378.59 340.92 L 377.42 339.69 L 375.78 338.76 L 373.57 338.15 L 371.89 337.67 L 370.57 336.84 L 369.54 335.66 L 368.43 333.40 L 367.66 330.40 L 367.21 327.13 L 366.90 323.41 L 366.20 315.72 L 365.23 310.68 L 363.87 306.11 L 360.81 298.24 L 359.50 294.95 L 358.84 292.69 L 358.78 291.12 L 359.15 289.35 L 360.58 285.41 L 361.36 283.17 L 362.04 280.59 L 362.44 277.84 L 362.45 274.63 L 362.00 271.67 L 361.31 269.48 L 360.45 267.90 L 359.29 266.50 L 358.16 265.55 L 357.04 264.97 L 355.30 264.52 L 354.14 264.56 L 352.72 265.10 L 351.27 266.04 L 349.77 267.07 L 347.99 268.03 L 346.66 268.36 L 345.05 268.42 L 341.34 268.45 L 339.27 268.78 L 336.88 269.65 L 334.51 271.00 L 332.30 272.62 L 328.86 275.74 L 327.50 277.19 L 326.96 278.32 L 326.70 280.00 L 326.78 283.98 L 326.99 288.24 L 326.90 290.26 L 326.56 291.88 L 325.60 296.24 L 324.24 304.21 L 322.73 314.24 L 321.35 324.75 L 320.35 334.18 L 320.00 340.94 L 320.23 343.90 L 320.85 346.56 L 321.84 348.98 L 323.20 351.19 L 324.96 353.21 L 326.94 354.88 L 329.37 356.35 L 332.29 357.61 L 335.79 358.64 L 339.96 359.41 L 346.41 359.97 L 351.02 359.89 L 353.89 359.49 L 355.99 358.92 L 357.47 358.21 L 358.74 357.22 L 359.48 356.15 L 359.81 354.96 L 360.07 352.18 L 360.03 350.35 L 359.65 348.34 L 358.84 346.43 L 357.36 344.67 L 356.09 343.76 L 354.35 343.00 L 352.01 342.43 L 346.52 341.48 L 344.65 341.08" fill="#ffffff" fill-rule="nonzero" group-id="1,24,54" node-id="164" stroke="none" target-height="95.45273" target-width="59.990234" target-x="320.003" target-y="264.51788"></path></g><g node-id="560"><path d="M 352.84 266.15 L 353.12 265.74 L 353.78 264.97 L 354.57 264.55 L 355.22 264.66 L 355.85 264.97 L 356.86 265.76 L 357.27 266.19 L 356.13 266.57 L 354.01 266.94 L 353.16 266.75 L 352.84 266.15 Z" fill="#757f95" fill-rule="nonzero" group-id="1,24,55" node-id="169" stroke="none" target-height="2.3902588" target-width="4.4260254" target-x="352.843" target-y="264.554"></path></g><g node-id="561"><path d="M 354.61 256.07 L 353.69 256.05 L 353.11 256.38 L 352.70 256.92 L 352.47 257.50 L 352.34 258.16 L 351.60 258.15 L 350.93 258.26 L 350.28 258.54 L 349.84 259.03 L 349.74 259.90 L 350.04 260.65 L 350.58 261.23 L 351.41 261.67 L 352.80 262.09 L 354.13 262.28 L 355.57 262.34 L 355.77 261.46 L 356.03 259.45 L 356.01 258.33 L 355.82 257.33 L 355.37 256.53 L 354.61 256.07 Z" fill="#757f95" fill-rule="nonzero" group-id="1,24,56" node-id="174" stroke="none" target-height="6.2943115" target-width="6.2943115" target-x="349.735" target-y="256.04968"></path></g><g node-id="562"><path d="M 328.45 278.95 L 327.49 278.81 L 325.32 278.86 L 324.13 279.17 L 323.03 279.79 L 322.20 280.74 L 321.70 282.27 L 321.69 283.83 L 322.00 285.06 L 322.61 286.03 L 323.48 286.72 L 324.47 286.98 L 325.67 286.82 L 326.77 286.24 L 327.99 285.01 L 329.35 282.87" fill="#ffffff" fill-rule="nonzero" group-id="1,24,57" node-id="179" stroke="none" target-height="8.167633" target-width="7.6650696" target-x="321.68695" target-y="278.8137"></path></g><g node-id="563"><path d="M 328.58 313.25 L 328.45 315.15 L 328.24 319.84 L 328.19 325.82 L 328.33 328.88 L 328.59 331.58 L 329.07 334.05 L 329.68 335.63 L 330.63 336.83 L 331.94 337.87 L 333.70 338.75 L 336.58 339.64 L 339.90 340.19 L 343.28 340.38 L 346.44 340.26 L 349.48 339.83 L 352.45 339.02 L 354.31 338.12 L 355.33 337.23 L 355.78 336.35 L 355.87 335.34 L 355.64 334.28 L 355.06 333.15 L 353.86 331.58 L 352.45 330.13 L 351.23 328.50 L 350.04 326.09 L 347.61 320.63 L 345.99 317.96 L 343.86 315.63" fill="url(#b)" fill-rule="nonzero" group-id="1,24,58" node-id="184" stroke="none" target-height="27.1297" target-width="27.674805" target-x="328.19418" target-y="313.25"></path></g><g node-id="564"><path d="M 342.41 272.72 L 342.11 272.81 L 341.89 273.03 L 341.89 273.03 L 341.88 273.05 L 341.02 274.14 L 339.96 274.90 L 338.65 275.37 L 338.63 275.37 L 338.63 275.37 L 338.30 275.53 L 338.12 275.87 L 338.11 275.87 L 337.71 276.95 L 338.55 276.86 L 338.61 276.55 L 338.71 275.97 L 338.71 276.83 L 339.31 276.71 L 339.31 275.96 L 339.38 276.42 L 339.42 276.69 L 340.68 276.26 L 341.80 275.55 L 342.52 274.64 L 342.95 273.57 L 343.01 273.32 L 342.83 272.90 L 342.41 272.72 Z" fill="#757f95" fill-rule="nonzero" group-id="1,24,59" node-id="189" stroke="none" target-height="4.223999" target-width="5.3020325" target-x="337.706" target-y="272.72202"></path></g><g node-id="565"><path d="M 363.30 314.91 L 361.90 313.89 L 360.72 313.52 L 359.56 313.55 L 358.57 313.87 L 357.08 314.88 L 356.53 315.46 L 355.53 314.78 L 354.49 314.21 L 353.15 313.66 L 351.73 313.38 L 350.33 313.51 L 349.50 313.88 L 348.74 314.58 L 348.03 315.72 L 347.70 317.03 L 347.73 318.42 L 348.16 319.94 L 349.28 322.13 L 350.95 324.41 L 352.87 326.54 L 354.85 328.45 L 358.33 331.39 L 359.84 332.52 L 360.55 331.03 L 362.12 327.35 L 363.67 322.66 L 364.19 320.24 L 364.35 318.12 L 364.23 316.77 L 363.87 315.72 L 363.30 314.91 Z" fill="url(#c)" fill-rule="nonzero" group-id="1,24,60" node-id="194" stroke="none" target-height="19.136963" target-width="16.65863" target-x="347.69568" target-y="313.37903"></path></g><path d="M 328.62 312.62 L 329.16 314.24 L 330.55 318.28 L 332.43 323.48 L 334.43 328.60 L 336.19 332.38 L 337.40 334.19 L 338.77 335.73 L 340.31 337.03 L 342.02 338.08 L 343.82 338.84 L 345.72 339.30 L 347.67 339.46 L 349.67 339.27 L 351.73 338.73 L 353.61 337.84 L 354.62 337.02 L 355.05 336.24 L 355.14 335.33 L 354.92 334.39 L 354.33 333.36 L 353.15 331.92 L 351.73 330.51 L 350.78 329.29 L 349.82 327.46 L 348.02 323.08 L 347.01 320.73 L 345.84 318.43 L 344.45 316.31 L 342.80 314.56" fill="#ffffff" fill-rule="nonzero" group-id="1,24,61" node-id="199" stroke="none" target-height="26.840607" target-width="26.521027" target-x="328.622" target-y="312.615"></path></g><g node-id="530"><path d="M 219.00 348.50 L 218.72 350.13 L 217.90 351.74 L 216.45 353.37 L 214.68 354.73 L 212.39 356.06 L 209.48 357.34 L 204.82 358.83 L 199.15 360.02 L 193.16 360.74 L 186.50 361.00 L 179.84 360.74 L 173.85 360.02 L 168.18 358.83 L 163.52 357.34 L 160.61 356.06 L 158.32 354.73 L 156.55 353.37 L 155.10 351.74 L 154.28 350.13 L 154.00 348.50 L 154.28 346.87 L 155.10 345.26 L 156.55 343.63 L 158.32 342.27 L 160.61 340.94 L 163.52 339.66 L 168.18 338.17 L 173.85 336.98 L 179.84 336.26 L 186.50 336.00 L 193.16 336.26 L 199.15 336.98 L 204.82 338.17 L 209.48 339.66 L 212.39 340.94 L 214.68 342.27 L 216.45 343.63 L 217.90 345.26 L 218.72 346.87 L 219.00 348.50 Z" fill="#c0c9db" fill-rule="nonzero" group-id="1,25" node-id="205" stroke="none" target-height="25" target-width="65" target-x="154" target-y="336"></path></g><g node-id="531"><path d="M 200.00 373.50 L 199.76 374.60 L 199.05 375.68 L 197.75 376.78 L 195.31 378.04 L 191.83 379.11 L 187.99 379.76 L 183.50 380.00 L 179.01 379.76 L 175.17 379.11 L 171.69 378.04 L 169.25 376.78 L 167.95 375.68 L 167.24 374.60 L 167.00 373.50 L 167.24 372.40 L 167.95 371.32 L 169.25 370.22 L 171.69 368.96 L 175.17 367.89 L 179.01 367.24 L 183.50 367.00 L 187.99 367.24 L 191.83 367.89 L 195.31 368.96 L 197.75 370.22 L 199.05 371.32 L 199.76 372.40 L 200.00 373.50 Z" fill="#c0c9db" fill-rule="nonzero" group-id="1,26" node-id="210" stroke="none" target-height="13" target-width="33" target-x="167" target-y="367"></path></g><g node-id="532"><path d="M 208.00 369.50 L 207.70 371.22 L 206.84 372.78 L 205.53 374.08 L 203.79 375.11 L 201.79 375.76 L 199.50 376.00 L 197.21 375.76 L 195.21 375.11 L 193.47 374.08 L 192.16 372.78 L 191.30 371.22 L 191.00 369.50 L 191.30 367.78 L 192.16 366.22 L 193.47 364.92 L 195.21 363.89 L 197.21 363.24 L 199.50 363.00 L 201.79 363.24 L 203.79 363.89 L 205.53 364.92 L 206.84 366.22 L 207.70 367.78 L 208.00 369.50 Z" fill="#c0c9db" fill-rule="nonzero" group-id="1,27" node-id="215" stroke="none" target-height="13" target-width="17" target-x="191" target-y="363"></path></g><g node-id="533"><path d="M 200.00 380.00 L 199.70 381.02 L 198.77 382.02 L 197.43 382.80 L 195.54 383.45 L 193.45 383.85 L 191.00 384.00 L 188.55 383.85 L 186.46 383.45 L 184.57 382.80 L 183.23 382.02 L 182.30 381.02 L 182.00 380.00 L 182.30 378.98 L 183.23 377.98 L 184.57 377.20 L 186.46 376.55 L 188.55 376.15 L 191.00 376.00 L 193.45 376.15 L 195.54 376.55 L 197.43 377.20 L 198.77 377.98 L 199.70 378.98 L 200.00 380.00 Z" fill="#c0c9db" fill-rule="nonzero" group-id="1,28" node-id="220" stroke="none" target-height="8" target-width="18" target-x="182" target-y="376"></path></g><path d="M 224.00 388.00 L 223.73 389.01 L 223.01 389.94 L 221.66 390.83 L 220.11 391.43 L 218.25 391.84 L 216.00 392.00 L 213.75 391.84 L 211.89 391.43 L 210.34 390.83 L 208.99 389.94 L 208.27 389.01 L 208.00 388.00 L 208.27 386.99 L 208.99 386.06 L 210.34 385.17 L 211.89 384.57 L 213.75 384.16 L 216.00 384.00 L 218.25 384.16 L 220.11 384.57 L 221.66 385.17 L 223.01 386.06 L 223.73 386.99 L 224.00 388.00 Z" fill="#c0c9db" fill-rule="nonzero" group-id="1,29" node-id="225" stroke="none" target-height="8" target-width="16" target-x="208" target-y="384"></path></g><g node-id="507"><g node-id="535"><path d="M 352.22 156.14 L 346.18 157.43 L 346.28 154.43 Z" fill="#8f9aa9" fill-rule="nonzero" group-id="2,30" node-id="233" stroke="none" target-height="2.9970093" target-width="6.046509" target-x="346.176" target-y="154.431"></path></g><g node-id="536"><path d="M 350.93 152.44 L 346.64 156.90 L 345.05 154.35 Z" fill="#8f9aa9" fill-rule="nonzero" group-id="2,31" node-id="238" stroke="none" target-height="4.451996" target-width="5.883026" target-x="345.047" target-y="152.445"></path></g><g node-id="537"><g node-id="567"><g node-id="588"><path d="M 301.17 165.16 L 300.41 164.67 L 299.54 163.88 L 298.78 162.95 L 298.21 161.99 L 297.94 161.01 L 298.07 160.22 L 298.63 159.64 L 299.59 159.29 L 300.70 159.18 L 301.89 159.26 L 303.04 159.50 L 303.89 159.82 L 305.42 160.60 L 305.18 160.25 L 304.76 159.45 L 304.39 158.34 L 304.16 157.16 L 304.14 156.04 L 304.37 155.05 L 304.87 154.43 L 305.64 154.19 L 306.65 154.35 L 307.67 154.79 L 308.68 155.44 L 309.57 156.20 L 310.16 156.89 L 316.31 166.01 L 311.39 169.33 L 310.97 170.16 Z" fill="#8f9aa9" fill-rule="nonzero" group-id="2,32,62,83" node-id="247" stroke="none" target-height="15.964966" target-width="18.372803" target-x="297.93506" target-y="154.19482"></path></g><path d="M 301.23 183.43 L 299.73 182.33 L 299.09 181.70 L 298.69 180.97 L 298.63 180.14 L 299.06 178.93 L 299.93 177.85 L 301.16 177.03 L 304.27 175.79 L 305.97 175.13 L 307.73 174.26 L 309.73 173.22 L 309.73 172.93 L 309.93 171.12 L 310.47 169.45 L 311.36 167.88 L 312.54 166.50 L 313.96 165.30 L 315.67 164.29 L 317.51 163.56 L 319.52 163.10 L 321.73 162.93 L 323.10 163.27 L 324.76 164.24 L 328.07 166.66 L 329.76 167.61 L 331.23 167.93 L 332.71 167.59 L 334.02 166.83 L 331.20 166.19 L 328.76 165.07 L 326.67 163.49 L 325.10 161.58 L 324.35 160.13 L 323.89 158.58 L 323.73 156.93 L 323.93 155.12 L 324.47 153.44 L 325.36 151.88 L 326.54 150.50 L 327.96 149.30 L 329.67 148.29 L 331.51 147.56 L 333.52 147.10 L 335.73 146.93 L 337.93 147.10 L 339.94 147.56 L 341.78 148.29 L 343.49 149.30 L 344.91 150.50 L 346.09 151.88 L 346.98 153.44 L 347.53 155.12 L 347.73 156.93 L 347.54 158.65 L 347.05 160.25 L 346.24 161.76 L 345.16 163.10 L 343.86 164.28 L 342.29 165.30 L 339.68 166.37 L 336.68 166.90 L 336.15 169.12 L 334.96 171.81 L 333.36 174.46 L 331.34 177.06 L 329.05 179.39 L 326.65 181.23 L 324.92 182.17 L 323.29 182.73 L 321.73 182.93 L 319.67 182.81 L 317.72 182.39 L 315.85 181.66 L 314.13 180.63 L 312.59 179.35 L 311.24 177.80 L 309.13 180.10 L 306.73 182.10 L 304.37 183.51 L 303.42 183.89 L 302.69 184.00 L 301.91 183.84 L 301.23 183.43 Z" fill="#747f95" fill-rule="nonzero" group-id="2,32,62,84" node-id="252" stroke="none" target-height="37.070007" target-width="49.093506" target-x="298.63257" target-y="146.927"></path></g><path d="M 267.73 170.00 L 267.96 168.37 L 268.54 166.97 L 269.48 165.76 L 270.70 164.81 L 272.10 164.23 L 273.73 164.00 L 275.35 164.23 L 276.75 164.81 L 277.97 165.76 L 278.91 166.97 L 279.49 168.37 L 279.73 170.00 L 279.49 171.63 L 278.91 173.03 L 277.97 174.24 L 276.75 175.19 L 275.35 175.77 L 273.73 176.00 L 272.10 175.77 L 270.70 175.19 L 269.48 174.24 L 268.54 173.03 L 267.96 171.63 L 267.73 170.00 Z M 239.73 170.00 L 239.96 168.37 L 240.54 166.97 L 241.48 165.76 L 242.70 164.81 L 244.10 164.23 L 245.73 164.00 L 247.35 164.23 L 248.75 164.81 L 249.97 165.76 L 250.91 166.97 L 251.49 168.37 L 251.73 170.00 L 251.49 171.63 L 250.91 173.03 L 249.97 174.24 L 248.75 175.19 L 247.35 175.77 L 245.73 176.00 L 244.10 175.77 L 242.70 175.19 L 241.48 174.24 L 240.54 173.03 L 239.96 171.63 L 239.73 170.00 Z M 211.73 170.00 L 211.96 168.37 L 212.54 166.97 L 213.48 165.76 L 214.70 164.81 L 216.10 164.23 L 217.73 164.00 L 219.35 164.23 L 220.75 164.81 L 221.97 165.76 L 222.91 166.97 L 223.49 168.37 L 223.73 170.00 L 223.49 171.63 L 222.91 173.03 L 221.97 174.24 L 220.75 175.19 L 219.35 175.77 L 217.73 176.00 L 216.10 175.77 L 214.70 175.19 L 213.48 174.24 L 212.54 173.03 L 211.96 171.63 L 211.73 170.00 Z M 183.73 170.00 L 183.96 168.37 L 184.54 166.97 L 185.48 165.76 L 186.70 164.81 L 188.10 164.23 L 189.73 164.00 L 191.35 164.23 L 192.75 164.81 L 193.97 165.76 L 194.91 166.97 L 195.49 168.37 L 195.73 170.00 L 195.49 171.63 L 194.91 173.03 L 193.97 174.24 L 192.75 175.19 L 191.35 175.77 L 189.73 176.00 L 188.10 175.77 L 186.70 175.19 L 185.48 174.24 L 184.54 173.03 L 183.96 171.63 L 183.73 170.00 Z M 155.73 170.00 L 155.96 168.37 L 156.54 166.97 L 157.48 165.76 L 158.70 164.81 L 160.10 164.23 L 161.73 164.00 L 163.35 164.23 L 164.75 164.81 L 165.97 165.76 L 166.91 166.97 L 167.49 168.37 L 167.73 170.00 L 167.49 171.63 L 166.91 173.03 L 165.97 174.24 L 164.75 175.19 L 163.35 175.77 L 161.73 176.00 L 160.10 175.77 L 158.70 175.19 L 157.48 174.24 L 156.54 173.03 L 155.96 171.63 L 155.73 170.00 Z M 127.73 170.00 L 127.96 168.37 L 128.54 166.97 L 129.48 165.76 L 130.70 164.81 L 132.10 164.23 L 133.73 164.00 L 135.35 164.23 L 136.75 164.81 L 137.97 165.76 L 138.91 166.97 L 139.49 168.37 L 139.73 170.00 L 139.49 171.63 L 138.91 173.03 L 137.97 174.24 L 136.75 175.19 L 135.35 175.77 L 133.73 176.00 L 132.10 175.77 L 130.70 175.19 L 129.48 174.24 L 128.54 173.03 L 127.96 171.63 L 127.73 170.00 Z" fill="url(#d)" fill-rule="nonzero" group-id="2,32,63" node-id="258" stroke="none" target-height="12" target-width="152" target-x="127.7251" target-y="164"></path></g><path d="M 341.73 154.00 L 341.57 154.78 L 341.14 155.41 L 340.51 155.84 L 339.73 156.00 L 338.94 155.84 L 338.31 155.41 L 337.88 154.78 L 337.73 154.00 L 337.88 153.22 L 338.31 152.59 L 338.94 152.16 L 339.73 152.00 L 340.51 152.16 L 341.14 152.59 L 341.57 153.22 L 341.73 154.00 Z" fill="#ffffff" fill-rule="nonzero" group-id="2,33" node-id="264" stroke="none" target-height="4" target-width="4" target-x="337.725" target-y="152"></path></g><g node-id="508"><g node-id="539"><g node-id="569"><path d="M 160.00 272.00 L 188.00 312.00 L 132.00 312.00 Z" fill="#e1e6ef" fill-rule="nonzero" group-id="3,34,64" node-id="274" stroke="none" target-height="40" target-width="56" target-x="132" target-y="272"></path></g><path d="M 159.40 272.00 L 188.00 312.00 L 162.42 312.00 L 171.58 298.50 L 164.42 298.50 L 169.33 290.25 Z" fill="#cdd3df" fill-rule="nonzero" group-id="3,34,65" node-id="279" stroke="none" target-height="40" target-width="28.600006" target-x="159.4" target-y="272"></path></g><g node-id="540"><g node-id="571"><path d="M 160.00 256.00 L 180.00 288.00 L 140.00 288.00 Z" fill="#e1e6ef" fill-rule="nonzero" group-id="3,35,66" node-id="287" stroke="none" target-height="32" target-width="40" target-x="140" target-y="256"></path></g><path d="M 160.00 256.00 L 180.00 288.00 L 172.42 288.00 Z" fill="#cdd3df" fill-rule="nonzero" group-id="3,35,67" node-id="292" stroke="none" target-height="32" target-width="20" target-x="160" target-y="256"></path></g><g node-id="541"><g node-id="573"><path d="M 160.00 248.00 L 172.00 264.00 L 148.00 264.00 Z" fill="#e1e6ef" fill-rule="nonzero" group-id="3,36,68" node-id="300" stroke="none" target-height="16" target-width="24" target-x="148" target-y="248"></path></g><path d="M 159.97 248.00 L 172.00 264.00 L 168.00 264.00 Z" fill="#cdd3df" fill-rule="nonzero" group-id="3,36,69" node-id="305" stroke="none" target-height="16" target-width="12.031006" target-x="159.969" target-y="248"></path></g><g node-id="542"><path d="M 156.00 312.00 L 164.00 312.00 L 164.00 344.00 L 156.00 344.00 Z" fill="#e1e6ef" fill-rule="nonzero" group-id="3,37" node-id="311" stroke="none" target-height="32" target-width="8" target-x="156" target-y="312"></path></g><path d="M 162.50 312.00 L 166.00 312.00 L 166.00 344.00 L 162.00 344.00 L 162.00 321.75 L 156.17 321.75 Z" fill="#cdd3df" fill-rule="nonzero" group-id="3,38" node-id="316" stroke="none" target-height="32" target-width="9.833008" target-x="156.16699" target-y="312"></path></g><g node-id="509"><g node-id="544"><path d="M 114.50 304.00 L 133.00 331.00 L 96.00 331.00 Z" fill="#e1e6ef" fill-rule="nonzero" group-id="4,39" node-id="324" stroke="none" target-height="27" target-width="37" target-x="96" target-y="304"></path><g node-id="575"><path d="M 114.27 304.00 L 133.07 331.09 L 122.75 331.09 Z" fill="#cdd3df" fill-rule="nonzero" group-id="4,39,70" node-id="328" stroke="none" target-height="27.093994" target-width="18.800003" target-x="114.267" target-y="304"></path></g></g><g node-id="545"><g node-id="576"><path d="M 114.50 293.00 L 128.00 315.00 L 101.00 315.00 Z" fill="#e1e6ef" fill-rule="nonzero" group-id="4,40,71" node-id="336" stroke="none" target-height="22" target-width="27" target-x="100.99999" target-y="293"></path></g><path d="M 114.67 293.33 L 128.00 315.12 L 120.00 315.12 Z" fill="#cdd3df" fill-rule="nonzero" group-id="4,40,72" node-id="341" stroke="none" target-height="21.791992" target-width="13.333" target-x="114.66599" target-y="293.333"></path></g><g node-id="546"><g node-id="578"><path d="M 115.00 288.00 L 123.00 299.00 L 107.00 299.00 Z" fill="#e1e6ef" fill-rule="nonzero" group-id="4,41,73" node-id="349" stroke="none" target-height="11" target-width="16" target-x="107.00001" target-y="288"></path></g><path d="M 115.03 288.00 L 123.06 299.09 L 117.44 299.09 Z" fill="#cdd3df" fill-rule="nonzero" group-id="4,41,74" node-id="354" stroke="none" target-height="11.093994" target-width="8.031006" target-x="115.031006" target-y="288"></path></g><g node-id="547"><path d="M 115.00 331.00 L 120.00 331.00 L 120.00 352.00 L 115.00 352.00 Z" fill="#cdd3df" fill-rule="nonzero" group-id="4,42" node-id="360" stroke="none" target-height="21" target-width="5" target-x="115" target-y="331"></path></g><path d="M 112.00 331.00 L 117.00 331.00 L 117.00 352.00 L 112.00 352.00 Z" fill="#e1e6ef" fill-rule="nonzero" group-id="4,43" node-id="365" stroke="none" target-height="21" target-width="5" target-x="112" target-y="331"></path></g><g node-id="510"><g node-id="549"><path d="M 149.94 301.12 L 138.97 312.00 L 144.59 312.00 L 152.69 307.88 Z" fill="#cdd3df" fill-rule="nonzero" group-id="5,44" node-id="373" stroke="none" target-height="10.875" target-width="13.718994" target-x="138.969" target-y="301.125"></path></g></g><g node-id="511"><path d="M 149.44 317.00 L 167.94 344.00 L 130.94 344.00 Z" fill="#e1e6ef" fill-rule="nonzero" group-id="6" node-id="379" stroke="none" target-height="27" target-width="37" target-x="130.938" target-y="317"></path><g node-id="550"><path d="M 149.21 317.00 L 168.00 344.09 L 157.69 344.09 Z" fill="#cdd3df" fill-rule="nonzero" group-id="6,45" node-id="383" stroke="none" target-height="27.093994" target-width="18.800003" target-x="149.205" target-y="317"></path></g></g><g node-id="512"><g node-id="551"><path d="M 149.44 306.00 L 162.94 328.00 L 135.94 328.00 Z" fill="#e1e6ef" fill-rule="nonzero" group-id="7,46" node-id="391" stroke="none" target-height="22" target-width="27" target-x="135.938" target-y="306"></path></g><path d="M 149.60 306.33 L 162.94 328.12 L 154.94 328.12 Z" fill="#cdd3df" fill-rule="nonzero" group-id="7,47" node-id="396" stroke="none" target-height="21.791992" target-width="13.333008" target-x="149.604" target-y="306.333"></path></g><g node-id="513"><path d="M 149.94 344.00 L 154.94 344.00 L 154.94 365.00 L 149.94 365.00 Z" fill="#cdd3df" fill-rule="nonzero" group-id="8" node-id="402" stroke="none" target-height="21" target-width="5" target-x="149.938" target-y="344"></path></g><g node-id="514"><path d="M 146.94 344.00 L 151.94 344.00 L 151.94 365.00 L 146.94 365.00 Z" fill="#e1e6ef" fill-rule="nonzero" group-id="9" node-id="407" stroke="none" target-height="21" target-width="5" target-x="146.938" target-y="344"></path></g><g node-id="515"><path d="M 149.94 301.00 L 157.94 312.00 L 141.94 312.00 Z" fill="#e1e6ef" fill-rule="nonzero" group-id="10" node-id="412" stroke="none" target-height="11" target-width="16" target-x="141.938" target-y="301"></path></g><g node-id="516"><path d="M 149.97 301.00 L 158.00 312.09 L 153.75 312.09 L 152.32 309.22 L 151.11 306.25 L 150.39 303.65 L 149.97 301.00 Z" fill="#cdd3df" fill-rule="nonzero" group-id="11" node-id="417" stroke="none" target-height="11.093994" target-width="8.031006" target-x="149.969" target-y="301"></path></g><g node-id="517"><g node-id="553"><g node-id="580"><path d="M 188.00 280.00 L 216.00 320.00 L 160.00 320.00 Z" fill="#e1e6ef" fill-rule="nonzero" group-id="12,48,75" node-id="426" stroke="none" target-height="40" target-width="56" target-x="160" target-y="280"></path></g><path d="M 187.40 280.00 L 216.00 320.00 L 200.00 320.00 Z" fill="#cdd3df" fill-rule="nonzero" group-id="12,48,76" node-id="431" stroke="none" target-height="40" target-width="28.600006" target-x="187.4" target-y="280"></path></g><g node-id="554"><g node-id="582"><path d="M 188.00 264.00 L 208.00 296.00 L 168.00 296.00 Z" fill="#e1e6ef" fill-rule="nonzero" group-id="12,49,77" node-id="439" stroke="none" target-height="32" target-width="40" target-x="168" target-y="264"></path></g><path d="M 188.00 264.00 L 208.00 296.00 L 196.62 296.00 Z" fill="#cdd3df" fill-rule="nonzero" group-id="12,49,78" node-id="444" stroke="none" target-height="32" target-width="20" target-x="188" target-y="264"></path></g><g node-id="555"><g node-id="584"><path d="M 188.00 256.00 L 200.00 272.00 L 176.00 272.00 Z" fill="#e1e6ef" fill-rule="nonzero" group-id="12,50,79" node-id="452" stroke="none" target-height="16" target-width="24" target-x="176" target-y="256"></path></g><path d="M 187.97 256.00 L 200.00 272.00 L 192.00 272.00 Z" fill="#cdd3df" fill-rule="nonzero" group-id="12,50,80" node-id="457" stroke="none" target-height="16" target-width="12.031006" target-x="187.969" target-y="256"></path></g><g node-id="556"><path d="M 188.00 320.00 L 196.00 320.00 L 196.00 352.00 L 188.00 352.00 Z" fill="#cdd3df" fill-rule="nonzero" group-id="12,51" node-id="463" stroke="none" target-height="32" target-width="8" target-x="188" target-y="320"></path></g><path d="M 184.00 320.00 L 192.00 320.00 L 192.00 352.00 L 184.00 352.00 Z" fill="#e1e6ef" fill-rule="nonzero" group-id="12,52" node-id="468" stroke="none" target-height="32" target-width="8" target-x="184" target-y="320"></path></g><g node-id="518"><path d="M 102.93 140.04 L 99.98 141.12 L 96.95 141.75 L 93.81 141.95 L 90.89 141.77 L 88.24 141.29 L 85.83 140.52 L 83.55 139.45 L 81.67 138.20 L 80.16 136.79 L 78.96 135.13 L 78.26 133.39 L 78.00 131.53 L 78.24 129.74 L 78.89 128.07 L 79.99 126.46 L 81.39 125.08 L 83.13 123.85 L 85.25 122.76 L 87.50 121.97 L 89.97 121.41 L 92.72 121.13 L 93.98 119.26 L 95.60 117.51 L 97.63 115.87 L 99.86 114.50 L 102.39 113.31 L 105.24 112.31 L 108.18 111.60 L 111.32 111.16 L 114.68 111.00 L 117.70 111.09 L 120.65 111.47 L 123.56 112.14 L 126.38 113.10 L 129.09 114.33 L 131.70 115.85 L 133.94 115.53 L 136.19 115.42 L 139.11 115.60 L 141.76 116.08 L 144.17 116.84 L 146.46 117.92 L 148.33 119.16 L 149.85 120.58 L 151.04 122.24 L 151.75 123.98 L 152.00 125.84 L 151.75 127.70 L 151.04 129.44 L 149.85 131.10 L 148.33 132.52 L 146.46 133.77 L 144.17 134.84 L 141.76 135.60 L 139.11 136.08 L 136.19 136.26 L 133.65 136.13 L 133.66 136.58 L 133.41 138.44 L 132.70 140.18 L 131.50 141.84 L 129.99 143.26 L 128.12 144.50 L 125.83 145.58 L 123.42 146.34 L 120.77 146.82 L 117.85 147.00 L 114.39 146.74 L 111.33 146.08 L 108.62 145.04 L 106.13 143.58 L 104.26 141.91 L 102.93 140.04 Z" fill="#ffffff" fill-rule="nonzero" group-id="13" node-id="474" stroke="none" target-height="36" target-width="74.005005" target-x="78" target-y="111"></path></g><g node-id="519"><path d="M 214.81 264.13 L 212.34 264.94 L 209.76 265.19 L 207.39 264.98 L 205.34 264.40 L 203.53 263.47 L 202.20 262.32 L 201.31 260.93 L 201.00 259.40 L 201.29 257.95 L 202.05 256.64 L 203.37 255.44 L 204.96 254.55 L 206.87 253.94 L 209.15 253.62 L 210.26 252.11 L 211.80 250.77 L 213.83 249.58 L 216.04 248.74 L 218.52 248.21 L 221.33 248.00 L 223.82 248.13 L 226.24 248.63 L 228.56 249.49 L 230.75 250.69 L 233.24 250.46 L 235.61 250.67 L 237.66 251.25 L 239.47 252.18 L 240.80 253.32 L 241.69 254.72 L 242.00 256.25 L 241.69 257.77 L 240.80 259.17 L 239.47 260.31 L 237.66 261.24 L 235.61 261.82 L 233.24 262.04 L 231.83 261.96 L 231.84 262.21 L 231.53 263.74 L 230.64 265.13 L 229.31 266.28 L 227.50 267.21 L 225.45 267.79 L 223.08 268.00 L 220.29 267.70 L 217.96 266.91 L 216.58 266.10 L 215.55 265.17 L 214.81 264.13 Z" fill="#ffffff" fill-rule="nonzero" group-id="14" node-id="479" stroke="none" target-height="19.998993" target-width="41" target-x="201" target-y="248"></path></g><g node-id="520"><path d="M 118.43 234.29 L 116.75 234.86 L 114.98 235.03 L 113.32 234.87 L 111.93 234.47 L 110.75 233.85 L 109.78 232.99 L 109.21 232.04 L 109.00 230.98 L 109.20 229.96 L 109.72 229.05 L 110.62 228.21 L 112.33 227.35 L 114.57 226.94 L 115.33 225.88 L 116.38 224.93 L 117.76 224.11 L 120.09 223.30 L 122.88 223.00 L 125.16 223.19 L 127.29 223.81 L 129.32 224.89 L 131.02 224.72 L 132.68 224.88 L 134.07 225.28 L 135.25 225.91 L 136.22 226.77 L 136.79 227.71 L 137.00 228.77 L 136.79 229.83 L 136.22 230.78 L 135.25 231.64 L 134.07 232.26 L 132.68 232.66 L 131.02 232.82 L 130.05 232.77 L 130.06 232.95 L 129.84 234.01 L 129.28 234.95 L 128.31 235.81 L 127.13 236.44 L 125.74 236.84 L 124.08 237.00 L 122.17 236.79 L 120.58 236.24 L 119.27 235.36 L 118.43 234.29 Z" fill="#ffffff" fill-rule="nonzero" group-id="15" node-id="484" stroke="none" target-height="13.998993" target-width="28" target-x="109" target-y="223.001"></path></g><g node-id="521"><path d="M 118.43 234.29 L 116.75 234.86 L 114.98 235.03 L 113.32 234.87 L 111.93 234.47 L 110.75 233.85 L 109.78 232.99 L 109.21 232.04 L 109.00 230.98 L 109.20 229.96 L 109.72 229.05 L 110.62 228.21 L 112.33 227.35 L 114.57 226.94 L 115.33 225.88 L 116.38 224.93 L 117.76 224.11 L 120.09 223.30 L 122.88 223.00 L 125.16 223.19 L 127.29 223.81 L 129.32 224.89 L 131.02 224.72 L 132.68 224.88 L 134.07 225.28 L 135.25 225.91 L 136.22 226.77 L 136.79 227.71 L 137.00 228.77 L 136.79 229.83 L 136.22 230.78 L 135.25 231.64 L 134.07 232.26 L 132.68 232.66 L 131.02 232.82 L 130.05 232.77 L 130.06 232.95 L 129.84 234.01 L 129.28 234.95 L 128.31 235.81 L 127.13 236.44 L 125.74 236.84 L 124.08 237.00 L 122.17 236.79 L 120.58 236.24 L 119.27 235.36 L 118.43 234.29 Z" fill="#ffffff" fill-rule="nonzero" group-id="16" node-id="489" stroke="none" target-height="13.998993" target-width="28" target-x="109" target-y="223.001"></path></g><g node-id="522"><path d="M 374.93 185.04 L 371.98 186.12 L 368.95 186.75 L 365.81 186.95 L 362.89 186.77 L 360.24 186.29 L 357.83 185.52 L 355.55 184.45 L 353.67 183.20 L 352.16 181.79 L 350.96 180.13 L 350.26 178.39 L 350.00 176.53 L 350.24 174.74 L 350.89 173.07 L 351.99 171.46 L 353.39 170.08 L 355.13 168.85 L 357.25 167.76 L 359.50 166.97 L 361.97 166.41 L 364.72 166.13 L 365.98 164.26 L 367.60 162.51 L 369.63 160.87 L 371.86 159.50 L 374.39 158.31 L 377.24 157.31 L 380.18 156.60 L 383.32 156.16 L 386.68 156.00 L 389.70 156.09 L 392.65 156.47 L 395.56 157.14 L 398.38 158.10 L 401.09 159.33 L 403.70 160.85 L 405.94 160.53 L 408.19 160.42 L 411.11 160.60 L 413.76 161.08 L 416.17 161.84 L 418.46 162.92 L 420.33 164.16 L 421.85 165.58 L 423.04 167.24 L 423.75 168.98 L 424.00 170.84 L 423.75 172.70 L 423.04 174.44 L 421.85 176.10 L 420.33 177.52 L 418.46 178.77 L 416.17 179.84 L 413.76 180.60 L 411.11 181.08 L 408.19 181.26 L 405.65 181.13 L 405.66 181.58 L 405.41 183.44 L 404.70 185.18 L 403.50 186.84 L 401.99 188.26 L 400.12 189.50 L 397.83 190.58 L 395.42 191.34 L 392.77 191.82 L 389.85 192.00 L 386.39 191.74 L 383.33 191.08 L 380.62 190.04 L 378.13 188.58 L 376.26 186.91 L 374.93 185.04 Z" fill="#ffffff" fill-rule="nonzero" group-id="17" node-id="494" stroke="none" target-height="36" target-width="74.005005" target-x="350" target-y="156"></path></g><g node-id="523"><path d="M 256.93 125.04 L 253.98 126.12 L 250.95 126.75 L 247.81 126.95 L 244.89 126.77 L 242.24 126.29 L 239.83 125.52 L 237.55 124.45 L 235.67 123.20 L 234.16 121.79 L 232.96 120.13 L 232.26 118.39 L 232.00 116.53 L 232.24 114.74 L 232.89 113.07 L 233.99 111.46 L 235.39 110.08 L 237.13 108.85 L 239.25 107.76 L 241.50 106.97 L 243.97 106.41 L 246.72 106.13 L 247.98 104.26 L 249.60 102.51 L 251.63 100.87 L 253.86 99.50 L 256.39 98.31 L 259.24 97.31 L 262.18 96.60 L 265.32 96.16 L 268.68 96.00 L 271.70 96.09 L 274.65 96.47 L 277.56 97.14 L 280.38 98.10 L 283.09 99.33 L 285.70 100.85 L 287.94 100.53 L 290.19 100.42 L 293.11 100.60 L 295.76 101.08 L 298.17 101.84 L 300.46 102.92 L 302.33 104.16 L 303.85 105.58 L 305.04 107.24 L 305.75 108.98 L 306.00 110.84 L 305.75 112.70 L 305.04 114.44 L 303.85 116.10 L 302.33 117.52 L 300.46 118.77 L 298.17 119.84 L 295.76 120.60 L 293.11 121.08 L 290.19 121.26 L 287.65 121.13 L 287.66 121.58 L 287.41 123.44 L 286.70 125.18 L 285.50 126.84 L 283.99 128.26 L 282.12 129.50 L 279.83 130.58 L 277.42 131.34 L 274.77 131.82 L 271.85 132.00 L 268.39 131.74 L 265.33 131.08 L 262.62 130.04 L 260.13 128.58 L 258.26 126.91 L 256.93 125.04 Z" fill="#ffffff" fill-rule="nonzero" group-id="18" node-id="499" stroke="none" target-height="36" target-width="74.005005" target-x="232" target-y="96"></path></g><path d="M 278.81 226.13 L 276.34 226.94 L 273.76 227.19 L 271.39 226.98 L 269.34 226.40 L 267.53 225.47 L 266.20 224.32 L 265.31 222.93 L 265.00 221.40 L 265.29 219.95 L 266.05 218.64 L 267.37 217.44 L 268.96 216.55 L 270.87 215.94 L 273.15 215.62 L 274.26 214.11 L 275.80 212.77 L 277.83 211.58 L 280.04 210.74 L 282.52 210.21 L 285.32 210.00 L 287.82 210.13 L 290.24 210.63 L 292.56 211.49 L 294.75 212.69 L 297.24 212.46 L 299.61 212.67 L 301.66 213.25 L 303.47 214.18 L 304.80 215.32 L 305.69 216.72 L 306.00 218.25 L 305.69 219.77 L 304.80 221.17 L 303.47 222.31 L 301.66 223.24 L 299.61 223.82 L 297.24 224.03 L 295.83 223.96 L 295.84 224.21 L 295.53 225.74 L 294.64 227.13 L 293.31 228.28 L 291.50 229.21 L 289.45 229.79 L 287.08 230.00 L 284.29 229.70 L 281.96 228.91 L 280.58 228.10 L 279.55 227.17 L 278.81 226.13 Z" fill="#ffffff" fill-rule="nonzero" group-id="19" node-id="504" stroke="none" target-height="19.998993" target-width="41" target-x="265" target-y="210"></path></svg>